Coordinates
version=1
nRows=32
nColumns=22
inDegrees=yes

Units are S.I. units (second, meters, Newtons, ...)
If the header above contains a line with 'inDegrees', this indicates whether rotational values are in degrees (yes) or radians (no).

endheader
time	pelvis_tilt	pelvis_list	pelvis_rotation	pelvis_tx	pelvis_ty	pelvis_tz	hip_flexion_r	hip_adduction_r	hip_rotation_r	knee_angle_r	ankle_angle_r	subtalar_angle_r	hip_flexion_l	hip_adduction_l	hip_rotation_l	knee_angle_l	ankle_angle_l	subtalar_angle_l	lumbar_extension	lumbar_bending	lumbar_rotation
      1.82000000	      0.10377654	      4.12566507	     68.33996614	      0.18709553	      0.92748378	     -0.16238030	     21.20056212	     -7.47301233	      9.29993044	    -14.40235526	      0.84066591	      9.75160791	     -2.92316414	      6.25914841	      7.97767833	    -21.94394840	     17.79428629	     -9.24204678	    -10.56942651	     -6.06347626	    -11.16735912
      1.83000000	     -0.01939221	      4.24538835	     68.84077082	      0.19155314	      0.92664656	     -0.16827609	     20.78150696	     -7.70756290	      9.45486687	    -12.11468450	      0.57843281	     10.31436068	     -3.69728065	      6.15790209	      8.36354967	    -21.57506206	     18.10568387	     -9.09961132	    -10.62114587	     -6.20002863	    -11.24716198
      1.84000000	     -0.14003302	      4.36574079	     69.32676855	      0.19605814	      0.92577686	     -0.17421764	     20.39876797	     -7.93032584	      9.43136067	    -10.15237226	      0.39361268	     10.80123418	     -4.46932309	      6.04871930	      8.74684987	    -21.22162220	     18.41336759	     -8.95364386	    -10.66590839	     -6.33117777	    -11.31132860
      1.85000000	     -0.25887073	      4.48386402	     69.79911263	      0.20062362	      0.92487915	     -0.18020468	     20.06552856	     -8.13079250	      9.23275079	     -8.55504318	      0.29310622	     11.17261025	     -5.22831868	      5.93149957	      9.11892686	    -20.89680104	     18.71643462	     -8.80463336	    -10.70030899	     -6.45775714	    -11.36930647
      1.86000000	     -0.37949527	      4.57998315	     70.26395963	      0.20523233	      0.92392641	     -0.18622070	     19.80919059	     -8.29959879	      8.87689251	     -7.34787218	      0.27400333	     11.38467479	     -5.93443799	      5.80762912	      9.48726284	    -20.63313382	     19.00936417	     -8.66307284	    -10.70557468	     -6.57396522	    -11.42360319
      1.87000000	     -0.50314432	      4.65258044	     70.71960659	      0.20988368	      0.92292065	     -0.19227767	     19.63495909	     -8.43428174	      8.41730721	     -6.54681479	      0.32066300	     11.43820670	     -6.58306367	      5.67778103	      9.82490745	    -20.43325941	     19.29413423	     -8.53552030	    -10.67822255	     -6.68013926	    -11.47559457
      1.88000000	     -0.65597814	      4.66016091	     71.18993145	      0.21452643	      0.92177912	     -0.19833127	     19.60292321	     -8.55354129	      7.86876622	     -6.16073291	      0.40511067	     11.37301118	     -7.09444424	      5.55850169	     10.16450898	    -20.34366277	     19.58762735	     -8.44181451	    -10.57284583	     -6.78905098	    -11.56661199
      1.89000000	     -0.79542814	      4.66644726	     71.64606276	      0.21921361	      0.92064156	     -0.20441675	     19.60482464	     -8.63426157	      7.31390399	     -6.12553539	      0.50226862	     11.14254169	     -7.58027567	      5.42843058	     10.47778485	    -20.31136466	     19.83810317	     -8.35537401	    -10.47082575	     -6.88057889	    -11.61374998
      1.90000000	     -0.96274663	      4.60107418	     72.11677957	      0.22387377	      0.91937249	     -0.21052281	     19.72065649	     -8.70814052	      6.81424176	     -6.40818518	      0.60530915	     10.92813280	     -7.93635018	      5.30556841	     10.77644578	    -20.36205545	     20.10151815	     -8.30058445	    -10.28174075	     -6.96649917	    -11.70352836
      1.91000000	     -1.16591477	      4.48004207	     72.58334360	      0.22855284	      0.91800700	     -0.21655457	     19.94861380	     -8.77828081	      6.40480086	     -6.97621072	      0.62786714	     10.49066278	     -8.15778855	      5.20514582	     11.04085425	    -20.52309227	     20.31116457	     -8.26708528	    -10.03418824	     -7.07705379	    -11.78209308
      1.92000000	     -1.34729603	      4.34324919	     73.05959263	      0.23324355	      0.91668082	     -0.22260131	     20.16755902	     -8.81607758	      6.09078823	     -7.70235973	      0.58370324	     10.23465475	     -8.35697373	      5.07618804	     11.34039145	    -20.70640341	     20.50564747	     -8.24420337	     -9.78220126	     -7.15572040	    -11.86798592
      1.93000000	     -1.54966535	      4.14217365	     73.51976408	      0.23798100	      0.91531558	     -0.22855718	     20.47206094	     -8.83245845	      5.90936662	     -8.56045168	      0.36859060	      9.89971971	     -8.42905880	      4.94810355	     11.59732989	    -20.97281523	     20.63958571	     -8.23636372	     -9.46591051	     -7.24601271	    -11.92816816
      1.94000000	     -1.72158729	      3.91991755	     73.95144601	      0.24280018	      0.91405107	     -0.23443903	     20.78359289	     -8.78774419	      5.85178332	     -9.47583544	     -0.01451477	      9.62459320	     -8.45616949	      4.77919687	     11.81617230	    -21.28281249	     20.71316843	     -8.22477115	     -9.14699183	     -7.30613241	    -11.95017702
      1.95000000	     -1.85125187	      3.68459398	     74.35058142	      0.24768340	      0.91293893	     -0.24026267	     21.10853014	     -8.67459875	      5.86294301	    -10.44193191	     -0.51417385	      9.42848838	     -8.45481665	      4.56210701	     12.00394454	    -21.62610599	     20.72566776	     -8.18945559	     -8.83582747	     -7.31938126	    -11.92815389
      1.96000000	     -1.88407252	      3.47431834	     74.73013701	      0.25261937	      0.91214715	     -0.24605551	     21.34832745	     -8.46152422	      5.87721418	    -11.36322832	     -1.20805872	      9.32195909	     -8.49314071	      4.25640135	     12.24395088	    -21.98218961	     20.62319806	     -8.15225715	     -8.59258852	     -7.23941839	    -11.84065877
      1.97000000	     -1.88626928	      3.19440216	     75.05690297	      0.25761882	      0.91144067	     -0.25179078	     21.72966331	     -8.17658049	      5.88337292	    -12.40625558	     -1.84147091	      9.24441750	     -8.41814963	      3.90653639	     12.41897357	    -22.40722123	     20.48539084	     -8.04295682	     -8.27861427	     -7.10628836	    -11.71279798
      1.98000000	     -1.77738079	      3.00365112	     75.34584356	      0.26264552	      0.91119779	     -0.25757078	     21.96092519	     -7.80584988	      5.82455577	    -13.40309592	     -2.52190738	      9.19491744	     -8.45377639	      3.48113418	     12.61147483	    -22.84764354	     20.18229255	     -7.98955202	     -8.09897299	     -6.87366498	    -11.50002713
      1.99000000	     -1.62455490	      2.75092430	     75.57800489	      0.26772528	      0.91107747	     -0.26341345	     22.29531889	     -7.36613640	      5.71741099	    -14.49205881	     -3.01799346	      9.17382687	     -8.40670159	      3.00931255	     12.76267611	    -23.33661186	     19.84692012	     -7.84247491	     -7.83937299	     -6.56935235	    -11.23408611
      2.00000000	     -1.40042250	      2.60690773	     75.77362870	      0.27278707	      0.91139799	     -0.26935241	     22.46626230	     -6.89690383	      5.53141039	    -15.53469762	     -3.38319201	      9.17966708	     -8.45790466	      2.51248303	     12.87128097	    -23.88226874	     19.32966194	     -7.78968525	     -7.71661796	     -6.20949618	    -10.91154793
      2.01000000	     -1.13128817	      2.46203865	     75.93721921	      0.27784822	      0.91194504	     -0.27541985	     22.59433842	     -6.39126266	      5.30118330	    -16.54028076	     -3.57463686	      9.23380406	     -8.49440900	      1.98619762	     12.94899414	    -24.47114526	     18.73692689	     -7.71968315	     -7.57987634	     -5.78914166	    -10.55154449
      2.02000000	     -0.83461158	      2.34289246	     76.08717546	      0.28290240	      0.91274415	     -0.28158529	     22.62155852	     -5.87855024	      5.03178339	    -17.44344314	     -3.60900238	      9.33900652	     -8.52608653	      1.45105044	     12.99596947	    -25.12069547	     18.02359073	     -7.66307541	     -7.46177147	     -5.34666011	    -10.17650318
      2.03000000	     -0.51845454	      2.24530832	     76.24986338	      0.28787922	      0.91376832	     -0.28783333	     22.52740702	     -5.37391730	      4.72904199	    -18.20191513	     -3.51274873	      9.49042647	     -8.52789112	      0.91198610	     13.00568005	    -25.85382201	     17.19208673	     -7.61756709	     -7.36039261	     -4.88108579	     -9.81135114
      2.04000000	     -0.17187675	      2.16175861	     76.44728631	      0.29277572	      0.91499415	     -0.29413775	     22.29072728	     -4.86979809	      4.36433551	    -18.76693163	     -3.33852391	      9.73055692	     -8.48599901	      0.34605567	     12.98513240	    -26.67806006	     16.26262070	     -7.51078617	     -7.27207111	     -4.38661159	     -9.45531846
      2.05000000	      0.14809921	      2.11249338	     76.68520156	      0.29755565	      0.91640083	     -0.30044847	     21.92636429	     -4.42416238	      3.96285443	    -19.17017369	     -3.04111109	      9.91507975	     -8.39933183	     -0.18300782	     12.92182754	    -27.58807392	     15.17415479	     -7.49562837	     -7.21252226	     -3.93141619	     -9.16756138
      2.06000000	      0.45910914	      2.07088646	     76.97740462	      0.30221933	      0.91792200	     -0.30674254	     21.45109330	     -4.01419948	      3.49640424	    -19.39516226	     -2.69764782	     10.07281454	     -8.24020827	     -0.70852603	     12.82649600	    -28.58657375	     13.98892452	     -7.47557633	     -7.15612149	     -3.49224251	     -8.93192089
      2.07000000	      0.75134971	      2.03099689	     77.33197815	      0.30674018	      0.91951327	     -0.31298386	     20.88077466	     -3.64712809	      2.96211774	    -19.44649589	     -2.33039363	     10.18580752	     -7.99124522	     -1.22472972	     12.70039206	    -29.67877185	     12.72520745	     -7.42140464	     -7.09732852	     -3.07992071	     -8.74982173
      2.08000000	      1.03191795	      1.98776649	     77.75446486	      0.31110079	      0.92113146	     -0.31914602	     20.23510694	     -3.31121304	      2.35664377	    -19.34814037	     -1.96989580	     10.24573605	     -7.65017548	     -1.74340290	     12.55564913	    -30.85550352	     11.40482456	     -7.30983290	     -7.03566453	     -2.68439930	     -8.62384229
      2.09000000	      1.29572584	      1.95274168	     78.24008233	      0.31531209	      0.92275344	     -0.32519900	     19.50760318	     -3.00691651	      1.68572068	    -19.09701084	     -1.62539606	     10.23000399	     -7.22518893	     -2.26552782	     12.36683447	    -32.11283443	     10.05381499	     -7.07343858	     -6.98620730	     -2.32018628	     -8.55068015
      2.10000000	      1.55190335	      1.89588918	     78.76858591	      0.31938899	      0.92430389	     -0.33116303	     18.76405797	     -2.70802373	      0.95971226	    -18.75398738	     -1.31034237	     10.17556889	     -6.72113764	     -2.79699084	     12.17357042	    -33.39719015	      8.64357052	     -6.92866906	     -6.90761613	     -1.96746954	     -8.47672156
      2.11000000	      1.81730024	      1.86117318	     79.36567337	      0.32328313	      0.92579960	     -0.33696200	     17.95343763	     -2.40493586	      0.19562870	    -18.31200373	     -1.05032764	      9.98875976	     -6.15070355	     -3.36524791	     11.94343307	    -34.75413843	      7.25136114	     -6.71148992	     -6.87395158	     -1.61370183	     -8.49432859
      2.12000000	      2.09271751	      1.82682025	     79.97495262	      0.32710690	      0.92719887	     -0.34268186	     17.12564006	     -2.07181672	     -0.58456619	    -17.81598623	     -0.77783737	      9.65776724	     -5.56264661	     -3.96311665	     11.70670807	    -36.08183557	      5.79858365	     -6.57154102	     -6.83908635	     -1.26090353	     -8.47150271
      2.13000000	      2.37141707	      1.78344801	     80.60942298	      0.33080471	      0.92846705	     -0.34825305	     16.32000433	     -1.71940452	     -1.38317317	    -17.30236956	     -0.61720336	      9.42737865	     -4.92160100	     -4.58072592	     11.48554078	    -37.41078864	      4.30721679	     -6.64292434	     -6.80280359	     -0.91167546	     -8.45287182
